<!DOCTYPE svg PUBLIC "-//W3C//DTD SVG 1.1//EN" "http://www.w3.org/Graphics/SVG/1.1/DTD/svg11.dtd">
<!-- Uploaded to: SVG Repo, www.svgrepo.com, Transformed by: SVG Repo Mixer Tools -->
<svg width="800px" height="800px" viewBox="0 0 24 24" xmlns="http://www.w3.org/2000/svg" id="ticket" class="icon glyph" fill="#ffffff" transform="rotate(270)" stroke="#ffffff">
<g id="SVGRepo_bgCarrier" stroke-width="0"/>
<g id="SVGRepo_tracerCarrier" stroke-linecap="round" stroke-linejoin="round"/>
<g id="SVGRepo_iconCarrier">
<path d="M21,10a1,1,0,0,0,1-1V6a2,2,0,0,0-2-2H11V7A1,1,0,0,1,9,7V4H4A2,2,0,0,0,2,6V9a1,1,0,0,0,1,1,2,2,0,0,1,0,4,1,1,0,0,0-1,1v3a2,2,0,0,0,2,2H9V17a1,1,0,0,1,2,0v3h9a2,2,0,0,0,2-2V15a1,1,0,0,0-1-1,2,2,0,0,1,0-4ZM11,13a1,1,0,0,1-2,0V11a1,1,0,0,1,2,0Z" style="fill:#ffffff"/>
</g>
</svg>